<svg xmlns="http://www.w3.org/2000/svg" viewBox="0 0 52.08 60.17"><defs><style>.cls-1{fill:#fff;}</style></defs><g id="Layer_2" data-name="Layer 2"><g id="Layer_1-2" data-name="Layer 1"><g id="CoinPhon_symbol_mono_White" data-name="CoinPhon symbol mono White"><path class="cls-1" d="M41.79,30.08A11.71,11.71,0,1,1,30.07,18.36,11.73,11.73,0,0,1,41.79,30.08Z"/><path class="cls-1" d="M18.25,18.27,2.64,33.87C1.4,35.11.3,34.69.14,33A30.07,30.07,0,0,1,12.48,5.66,29.52,29.52,0,0,1,26.13.25,30,30,0,0,1,51.35,8.81h0a2.52,2.52,0,0,1,0,3.54l-5.44,5.44a3.22,3.22,0,0,1-4.4.11,16.67,16.67,0,0,0-23.25.37Z"/><path class="cls-1" d="M14.32,36.47,4.64,46.15c-.19-.3-.37-.6-.55-.9a5.69,5.69,0,0,1,.8-6.56l6.05-6c1.18-1.18,2.42-.81,2.75.82Z"/><path class="cls-1" d="M19.59,43.1l-8.27,8.27a1.78,1.78,0,0,1-2.51,0h0c-.5-.5-1-1-1.44-1.54a1.66,1.66,0,0,1,.08-2.23L16,39.06A16.63,16.63,0,0,0,19.59,43.1Z"/><path class="cls-1" d="M33.34,46.49,22.13,57.69a2.72,2.72,0,0,1-2.66.56,29,29,0,0,1-5.32-2.64,1.57,1.57,0,0,1-.29-2.54l8.27-8.27a16.74,16.74,0,0,0,11.21,1.69Z"/><path class="cls-1" d="M51.35,47.82a2.52,2.52,0,0,1,0,3.54h0a29.9,29.9,0,0,1-21.28,8.81A31.08,31.08,0,0,1,26.86,60c-1.37-.15-1.69-1.1-.72-2.07l15.4-15.4a3.21,3.21,0,0,1,4.52,0Z"/></g></g></g></svg>