<svg xmlns="http://www.w3.org/2000/svg" viewBox="0 0 281.62 60.17"><defs><style>.cls-1{fill:#fff;}.cls-2{fill:#00c6ff;}.cls-3{fill:#0271ff;}.cls-4{fill:#647c94;}</style></defs><g id="Layer_2" data-name="Layer 2"><g id="Layer_1-2" data-name="Layer 1"><g id="CoinPhon_White" data-name="CoinPhon White"><path class="cls-1" d="M77.86,17.27a12.32,12.32,0,0,1,7.14-2,12,12,0,0,1,8,2.54,13.24,13.24,0,0,1,4.19,6.89l3.81-1A16.48,16.48,0,0,0,95.41,15,16,16,0,0,0,85,11.73a16.62,16.62,0,0,0-9.22,2.43,15.07,15.07,0,0,0-5.69,6.72,23.86,23.86,0,0,0-1.93,9.9,23.91,23.91,0,0,0,1.93,9.91,15.18,15.18,0,0,0,5.69,6.72A16.7,16.7,0,0,0,85,49.83a16,16,0,0,0,10.41-3.26A16.51,16.51,0,0,0,101,37.82l-3.81-1A13.26,13.26,0,0,1,93,43.7a11.93,11.93,0,0,1-8,2.55,12.37,12.37,0,0,1-7.18-2,11.94,11.94,0,0,1-4.32-5.45,20.89,20.89,0,0,1-1.41-8,21.77,21.77,0,0,1,1.49-8.06A11.82,11.82,0,0,1,77.86,17.27Z"/><path class="cls-1" d="M122.48,22.72a14.24,14.24,0,0,0-14,0,12,12,0,0,0-4.48,5.07,17.18,17.18,0,0,0-1.58,7.57A17.45,17.45,0,0,0,104,42.85,12.1,12.1,0,0,0,108.47,48a12.73,12.73,0,0,0,7,1.85,12.91,12.91,0,0,0,7-1.83,11.92,11.92,0,0,0,4.47-5.09,17.51,17.51,0,0,0,1.55-7.58,17.52,17.52,0,0,0-1.54-7.51A11.93,11.93,0,0,0,122.48,22.72Zm-.22,20.5q-2.24,3-6.81,3a8,8,0,0,1-6.73-3,12.76,12.76,0,0,1-2.29-7.94,15.2,15.2,0,0,1,1-5.65,8.32,8.32,0,0,1,3-3.84,8.71,8.71,0,0,1,5.07-1.38q4.55,0,6.8,2.94a12.76,12.76,0,0,1,2.24,7.93A13,13,0,0,1,122.26,43.22Z"/><rect class="cls-1" x="132.01" y="21.64" width="3.73" height="27.43"/><rect class="cls-1" x="132.01" y="12.24" width="3.73" height="4.19"/><path class="cls-1" d="M162.9,26.73a11,11,0,0,0-2.07-3,9.53,9.53,0,0,0-3.13-2.06,11.31,11.31,0,0,0-4.3-.76,11.69,11.69,0,0,0-5.94,1.48,9.86,9.86,0,0,0-3.28,3V21.64H140.8V49.07h3.76V34.44a15.13,15.13,0,0,1,.53-4.17,9,9,0,0,1,1.57-3.11,6.84,6.84,0,0,1,2.54-2,8.46,8.46,0,0,1,3.49-.68,7.8,7.8,0,0,1,3.67.79,6.41,6.41,0,0,1,2.46,2.22,9.91,9.91,0,0,1,1.39,3.35,19.67,19.67,0,0,1,.43,4.21v14h3.76V34a19.69,19.69,0,0,0-.36-3.72A14.58,14.58,0,0,0,162.9,26.73Z"/><path class="cls-1" d="M191.74,14.81a10.93,10.93,0,0,0-5.24-2.11,11.85,11.85,0,0,0-1.55-.17c-.56,0-1,0-1.37,0H168.46V49.07h6.12V36.29h9c.33,0,.79,0,1.35,0s1.09-.08,1.57-.15A10.9,10.9,0,0,0,191.72,34a9.8,9.8,0,0,0,3.08-4.1,14.25,14.25,0,0,0,1-5.47,14.68,14.68,0,0,0-1-5.5A9.8,9.8,0,0,0,191.74,14.81Zm-2.46,12A5.58,5.58,0,0,1,188,29a4.71,4.71,0,0,1-2.4,1.35,6.47,6.47,0,0,1-1.17.2c-.42,0-.8,0-1.14,0h-8.74V18.23h8.74c.34,0,.72,0,1.14,0a5.72,5.72,0,0,1,1.17.19,4.71,4.71,0,0,1,2.4,1.35,5.62,5.62,0,0,1,1.25,2.2,8.54,8.54,0,0,1,.37,2.4A8.36,8.36,0,0,1,189.28,26.79Z"/><path class="cls-1" d="M222.64,27.81a11.25,11.25,0,0,0-1.73-3.35,8.65,8.65,0,0,0-3.15-2.59,10.92,10.92,0,0,0-5-1,11.8,11.8,0,0,0-6.5,1.69,10.88,10.88,0,0,0-2.46,2.16V12.49h-5.46V49.07h6.2V35a12.87,12.87,0,0,1,.55-4.12,6.55,6.55,0,0,1,1.49-2.54A5.23,5.23,0,0,1,208.62,27a7.08,7.08,0,0,1,2.31-.38,5.74,5.74,0,0,1,3.47.94,5.82,5.82,0,0,1,1.93,2.4,10,10,0,0,1,.82,3,25.51,25.51,0,0,1,.18,2.87V49.07h6.2V33.75a25.51,25.51,0,0,0-.16-2.57A17.51,17.51,0,0,0,222.64,27.81Z"/><path class="cls-1" d="M246.92,22.73a14.89,14.89,0,0,0-14.32,0,12.73,12.73,0,0,0-4.8,5.09,15.88,15.88,0,0,0-1.73,7.56,16,16,0,0,0,1.69,7.51A12.65,12.65,0,0,0,232.52,48a14.93,14.93,0,0,0,14.38,0,12.8,12.8,0,0,0,4.79-5.1,16,16,0,0,0,1.71-7.54,16,16,0,0,0-1.7-7.5A12.76,12.76,0,0,0,246.92,22.73Zm-1.77,18.92a7.25,7.25,0,0,1-10.79.07,10.25,10.25,0,0,1-1.81-6.37,12.51,12.51,0,0,1,.76-4.55,6.48,6.48,0,0,1,2.35-3.08,6.91,6.91,0,0,1,4.05-1.1A6.37,6.37,0,0,1,245.12,29a10.3,10.3,0,0,1,1.8,6.36A10.44,10.44,0,0,1,245.15,41.65Z"/><path class="cls-1" d="M281.46,31.18a16.79,16.79,0,0,0-.73-3.37A11.46,11.46,0,0,0,279,24.46a8.82,8.82,0,0,0-3.15-2.59,11,11,0,0,0-5-1,11.81,11.81,0,0,0-6.51,1.69,10.88,10.88,0,0,0-2.46,2.16V21.64H256.4V49.07h6.2V35a12.87,12.87,0,0,1,.55-4.12,6.55,6.55,0,0,1,1.49-2.54A5.23,5.23,0,0,1,266.71,27a7.08,7.08,0,0,1,2.31-.38,5.74,5.74,0,0,1,3.47.94,5.82,5.82,0,0,1,1.93,2.4,10.34,10.34,0,0,1,.83,3,27.9,27.9,0,0,1,.17,2.87V49.07h6.2V33.75A25.51,25.51,0,0,0,281.46,31.18Z"/><path class="cls-2" d="M41.79,30.08A11.71,11.71,0,1,1,30.07,18.36,11.73,11.73,0,0,1,41.79,30.08Z"/><path class="cls-3" d="M18.25,18.27,2.64,33.87C1.4,35.11.3,34.69.14,33A30.07,30.07,0,0,1,12.48,5.66,29.52,29.52,0,0,1,26.13.25,30,30,0,0,1,51.35,8.81h0a2.52,2.52,0,0,1,0,3.54l-5.44,5.44a3.22,3.22,0,0,1-4.4.11,16.67,16.67,0,0,0-23.25.37Z"/><path class="cls-4" d="M14.32,36.47,4.64,46.15c-.19-.3-.37-.6-.55-.9a5.69,5.69,0,0,1,.8-6.56l6.05-6c1.18-1.18,2.42-.81,2.75.82Z"/><path class="cls-4" d="M19.59,43.1l-8.27,8.27a1.78,1.78,0,0,1-2.51,0h0c-.5-.5-1-1-1.44-1.54a1.66,1.66,0,0,1,.08-2.23L16,39.06A16.63,16.63,0,0,0,19.59,43.1Z"/><path class="cls-4" d="M33.34,46.49,22.13,57.69a2.72,2.72,0,0,1-2.66.56,29,29,0,0,1-5.32-2.64,1.57,1.57,0,0,1-.29-2.54l8.27-8.27a16.74,16.74,0,0,0,11.21,1.69Z"/><path class="cls-4" d="M51.35,47.82a2.52,2.52,0,0,1,0,3.54h0a29.9,29.9,0,0,1-21.28,8.81A31.08,31.08,0,0,1,26.86,60c-1.37-.15-1.69-1.1-.72-2.07l15.4-15.4a3.21,3.21,0,0,1,4.52,0Z"/></g></g></g></svg>